<svg width="48" height="61" viewBox="0 0 48 61" fill="none" xmlns="http://www.w3.org/2000/svg">
<g clip-path="url(#clip0_5_9)">
<path d="M37.25 57.219L9.5 56.9669L28 8.0661L37.25 57.219Z" fill="url(#paint0_linear_5_9)"/>
<path d="M0.25 30.7521L28 8.0661L9.5 56.9669L0.25 30.7521Z" fill="url(#paint1_linear_5_9)"/>
<path d="M47.75 23.6942L37.25 57.219L28 8.0661L47.75 23.6942Z" fill="url(#paint2_linear_5_9)"/>
<path d="M45 0L28 8.06612L47.75 23.6942L45 0Z" fill="url(#paint3_linear_5_9)"/>
<path d="M5 23.6942L28 8.0661L0.25 30.7521L5 23.6942Z" fill="#FF8C04"/>
<path d="M43.75 48.9008L37.25 57.219L47.75 23.6942L43.75 48.9008Z" fill="url(#paint4_linear_5_9)"/>
<path d="M1 46.3802L0.25 30.7521L9.5 56.9669L1 46.3802Z" fill="#FF985E"/>
<path d="M24 61L9.5 56.9669L37.25 57.219L24 61Z" fill="url(#paint5_linear_5_9)"/>
</g>
<defs>
<linearGradient id="paint0_linear_5_9" x1="23.375" y1="8.0661" x2="23.375" y2="57.219" gradientUnits="userSpaceOnUse">
<stop stop-color="#FFEA2B"/>
<stop offset="0.659258" stop-color="#F42C00"/>
</linearGradient>
<linearGradient id="paint1_linear_5_9" x1="14.125" y1="8.0661" x2="14.125" y2="56.9669" gradientUnits="userSpaceOnUse">
<stop stop-color="#FF3509"/>
<stop offset="1" stop-color="#E89900"/>
</linearGradient>
<linearGradient id="paint2_linear_5_9" x1="37.875" y1="8.0661" x2="37.875" y2="57.219" gradientUnits="userSpaceOnUse">
<stop stop-color="#FFEA2B"/>
<stop offset="1" stop-color="#FF2113"/>
</linearGradient>
<linearGradient id="paint3_linear_5_9" x1="37.875" y1="0" x2="37.875" y2="23.6942" gradientUnits="userSpaceOnUse">
<stop stop-color="#994D22"/>
<stop offset="1" stop-color="#FFEA2B"/>
</linearGradient>
<linearGradient id="paint4_linear_5_9" x1="42.5" y1="23.6942" x2="42.5" y2="57.219" gradientUnits="userSpaceOnUse">
<stop stop-color="#FF9922"/>
<stop offset="1" stop-color="#B90000"/>
</linearGradient>
<linearGradient id="paint5_linear_5_9" x1="20.75" y1="62.7645" x2="28.7638" y2="60.0323" gradientUnits="userSpaceOnUse">
<stop stop-color="#F9C200"/>
<stop offset="1" stop-color="#B96F00"/>
</linearGradient>
<clipPath id="clip0_5_9">
<rect width="48" height="61" fill="white"/>
</clipPath>
</defs>
</svg>
