<svg width="1440" height="738" viewBox="0 0 1440 738" fill="none" xmlns="http://www.w3.org/2000/svg">
<path fill-rule="evenodd" clip-rule="evenodd" d="M380.539 737.676H0V268.794C54.7471 217.52 95.3984 194.984 151.455 163.907C172.212 152.399 195.08 139.721 221.559 123.98C367.059 37.4798 607.059 5.97975 713.059 0.979752C819.059 -4.02025 991.059 8.97975 1162.56 66.4798C1238.93 92.0845 1344.45 144.283 1440 195.913V251.328C1377.83 225.207 1307.43 200.889 1239.56 187.98C898.102 140.092 776.167 174.049 721.257 189.34C710.235 192.41 701.913 194.727 695.059 195.48C654.059 199.98 400.559 268.48 327.559 395.98C263.491 507.879 268.746 530.814 278.09 571.593C279.392 577.279 280.774 583.311 282.059 589.98C289.228 627.19 315.742 663.002 380.539 737.676Z" fill="white"/>
</svg>
